<svg width="40" height="40" viewBox="0 0 40 40" fill="none" xmlns="http://www.w3.org/2000/svg">
<g filter="url(#filter0_d_6_511)">
<path fill-rule="evenodd" clip-rule="evenodd" d="M10 14C10 13.4477 10.4477 13 11 13H29C29.5523 13 30 13.4477 30 14C30 14.5523 29.5523 15 29 15H11C10.4477 15 10 14.5523 10 14Z" fill="white"/>
<path fill-rule="evenodd" clip-rule="evenodd" d="M10 20C10 19.4477 10.4477 19 11 19H29C29.5523 19 30 19.4477 30 20C30 20.5523 29.5523 21 29 21H11C10.4477 21 10 20.5523 10 20Z" fill="white"/>
<path fill-rule="evenodd" clip-rule="evenodd" d="M10 26C10 25.4477 10.4477 25 11 25H29C29.5523 25 30 25.4477 30 26C30 26.5523 29.5523 27 29 27H11C10.4477 27 10 26.5523 10 26Z" fill="white"/>
</g>
<defs>
<filter id="filter0_d_6_511" x="-2" y="-1" width="44" height="44" filterUnits="userSpaceOnUse" color-interpolation-filters="sRGB">
<feFlood flood-opacity="0" result="BackgroundImageFix"/>
<feColorMatrix in="SourceAlpha" type="matrix" values="0 0 0 0 0 0 0 0 0 0 0 0 0 0 0 0 0 0 127 0" result="hardAlpha"/>
<feOffset dy="1"/>
<feGaussianBlur stdDeviation="1"/>
<feColorMatrix type="matrix" values="0 0 0 0 0 0 0 0 0 0 0 0 0 0 0 0 0 0 0.05 0"/>
<feBlend mode="normal" in2="BackgroundImageFix" result="effect1_dropShadow_6_511"/>
<feBlend mode="normal" in="SourceGraphic" in2="effect1_dropShadow_6_511" result="shape"/>
</filter>
</defs>
</svg>
